<svg width="259" height="219" viewBox="0 0 259 219" fill="none" xmlns="http://www.w3.org/2000/svg">
<g opacity="0.2">
<path d="M58.922 22.4785H87.2807C94.5423 22.4785 100.429 28.3651 100.429 35.6267V139.059C100.429 144.869 105.138 149.578 110.947 149.578H257.899" stroke="black" stroke-width="7.88894"/>
<path d="M58.922 22.4785H87.2807C94.5423 22.4785 100.429 28.3651 100.429 35.6267V139.059C100.429 144.869 105.138 149.578 110.947 149.578H257.899" stroke="#D1EBFB" stroke-width="7.01239"/>
</g>
<g opacity="0.3">
<path d="M58.922 200.418H83.4365C90.456 200.418 96.1464 194.727 96.1464 187.708V187.708C96.1464 180.688 101.837 174.998 108.856 174.998H258.337" stroke="#010101" stroke-width="7.88894"/>
<path d="M58.922 200.418H83.4365C90.456 200.418 96.1464 194.727 96.1464 187.708V187.708C96.1464 180.688 101.837 174.998 108.856 174.998H258.337" stroke="#D1EBFB" stroke-width="7.01239"/>
</g>
<path d="M58.9221 113.639H74.7C81.9615 113.639 87.8482 119.526 87.8482 126.788V148.701C87.8482 155.963 93.7348 161.85 100.996 161.85H257.899" stroke="black" stroke-width="7.88894"/>
<path d="M58.9221 113.639H74.7C81.9615 113.639 87.8482 119.526 87.8482 126.788V148.701C87.8482 155.963 93.7348 161.85 100.996 161.85H257.899" stroke="#D1EBFB" stroke-width="7.01239"/>
<g opacity="0.4">
<path d="M6.57657 33.9082C6.57657 37.6919 15.5947 40.886 26.8756 40.886C38.1565 40.886 47.1746 37.565 47.1746 33.7814V27.1842M47.1746 27.3111C47.1746 31.0947 38.1565 34.0351 26.8756 34.0351C15.5947 34.0351 6.57657 30.9679 6.57657 27.1842V34.0351" stroke="black" stroke-width="0.525929"/>
<path d="M47.0388 27.1842C47.0388 28.0157 46.5367 28.8491 45.5332 29.6449C44.5325 30.4384 43.0683 31.1645 41.2355 31.7792C37.5727 33.0078 32.4958 33.7722 26.8759 33.7722C21.2559 33.7722 16.179 33.0078 12.5162 31.7792C10.6834 31.1645 9.21921 30.4384 8.21854 29.6449C7.21508 28.8491 6.71295 28.0157 6.71295 27.1842C6.71295 26.3527 7.21508 25.5193 8.21854 24.7236C9.21921 23.9301 10.6834 23.2039 12.5162 22.5892C16.179 21.3607 21.2559 20.5963 26.8759 20.5963C32.4958 20.5963 37.5727 21.3607 41.2355 22.5892C43.0683 23.2039 44.5325 23.9301 45.5332 24.7236C46.5367 25.5193 47.0388 26.3527 47.0388 27.1842Z" fill="#D1EBFB" stroke="black" stroke-width="0.525929"/>
<path d="M26.8756 31.1287C38.1565 31.1287 47.1746 27.8077 47.1746 24.0241V17.5537C47.1746 21.3374 38.1565 24.2778 26.8756 24.2778C15.5947 24.2778 6.57657 21.2105 6.57657 17.4269V24.1509C6.57657 27.9346 15.5947 31.1287 26.8756 31.1287Z" fill="#FEFBFB"/>
<path d="M6.57657 24.1509C6.57657 27.9346 15.5947 31.1287 26.8756 31.1287C38.1565 31.1287 47.1746 27.8077 47.1746 24.0241V17.4269M47.1746 17.5537C47.1746 21.3374 38.1565 24.2778 26.8756 24.2778C15.5947 24.2778 6.57657 21.2105 6.57657 17.4269V24.2778" stroke="black" stroke-width="0.525929"/>
<path d="M47.0388 17.4268C47.0388 18.2584 46.5367 19.0918 45.5332 19.8875C44.5325 20.681 43.0683 21.4071 41.2355 22.0219C37.5727 23.2504 32.4958 24.0148 26.8759 24.0148C21.2559 24.0148 16.179 23.2504 12.5162 22.0219C10.6834 21.4071 9.21921 20.681 8.21854 19.8875C7.21508 19.0918 6.71295 18.2584 6.71295 17.4268C6.71295 16.5953 7.21508 15.7619 8.21854 14.9662C9.21921 14.1727 10.6834 13.4465 12.5162 12.8318C16.179 11.6033 21.2559 10.8389 26.8759 10.8389C32.4958 10.8389 37.5727 11.6033 41.2355 12.8318C43.0683 13.4465 44.5325 14.1727 45.5332 14.9662C46.5367 15.7619 47.0388 16.5953 47.0388 17.4268Z" fill="#D1EBFB" stroke="black" stroke-width="0.525929"/>
<path d="M26.8756 21.1176C38.1565 21.1176 47.1746 17.7966 47.1746 14.0129V7.54261C47.1746 11.3263 38.1565 14.2667 26.8756 14.2667C15.5947 14.2667 6.57657 11.1994 6.57657 7.41574V14.1398C6.57657 17.9235 15.5947 21.1176 26.8756 21.1176Z" fill="#FEFBFB"/>
<path d="M6.57657 14.1398C6.57657 17.9235 15.5947 21.1176 26.8756 21.1176C38.1565 21.1176 47.1746 17.7966 47.1746 14.0129V7.41574M47.1746 7.54261C47.1746 11.3263 38.1565 14.2667 26.8756 14.2667C15.5947 14.2667 6.57657 11.1994 6.57657 7.41574V14.2667" stroke="black" stroke-width="0.525929"/>
<path d="M47.0388 7.41577C47.0388 8.24728 46.5367 9.08069 45.5332 9.87641C44.5325 10.6699 43.0683 11.3961 41.2355 12.0108C37.5727 13.2393 32.4958 14.0037 26.8759 14.0037C21.2559 14.0037 16.179 13.2393 12.5162 12.0108C10.6834 11.3961 9.21921 10.6699 8.21854 9.87641C7.21508 9.08069 6.71295 8.24728 6.71295 7.41577C6.71295 6.58426 7.21508 5.75085 8.21854 4.95513C9.21921 4.16161 10.6834 3.43547 12.5162 2.82075C16.179 1.59223 21.2559 0.827814 26.8759 0.827814C32.4958 0.827814 37.5727 1.59223 41.2355 2.82075C43.0683 3.43547 44.5325 4.16161 45.5332 4.95513C46.5367 5.75085 47.0388 6.58426 47.0388 7.41577Z" fill="#D1EBFB" stroke="black" stroke-width="0.525929"/>
</g>
<g opacity="0.4">
<path d="M33.273 217.072H19.7066C18.1277 217.072 17.2861 216.437 17.2861 216.196L16.8479 212.251C16.8479 212.01 18.1277 211.813 19.7066 211.813H33.273C34.8521 211.813 36.1319 212.01 36.1319 212.251L35.6937 215.757C35.6937 215.999 34.8521 217.072 33.273 217.072Z" fill="#D1EBFB"/>
<path d="M33.2788 217.586H19.7373C18.1612 217.586 16.8837 216.303 16.8837 214.735V186.232C16.8837 184.664 18.1612 183.382 19.7373 183.382H33.2788C34.8551 183.382 36.1325 184.664 36.1325 186.232V214.735C36.1325 216.303 34.8551 217.586 33.2788 217.586Z" stroke="black" stroke-width="0.876548" stroke-miterlimit="10" stroke-linecap="round" stroke-linejoin="round"/>
<path d="M26.5108 215.595C25.9131 215.595 25.4272 215.101 25.4272 214.501C25.4272 213.92 25.9131 213.426 26.5108 213.426C27.1085 213.426 27.5938 213.92 27.5938 214.501C27.5938 215.101 27.1085 215.595 26.5108 215.595Z" fill="black"/>
<path d="M24.2799 187.386H28.4603" stroke="black" stroke-width="0.876548" stroke-miterlimit="10" stroke-linecap="round" stroke-linejoin="round"/>
<path d="M17.083 211.541H35.9344" stroke="black" stroke-width="0.876548" stroke-miterlimit="10" stroke-linecap="round" stroke-linejoin="round"/>
</g>
<path d="M17.02 114.874H16.0339V107.396H17.02V114.874ZM18.4273 112.044C18.4273 111.5 18.5334 111.01 18.7457 110.575C18.9614 110.14 19.2593 109.805 19.6394 109.568C20.0229 109.332 20.4594 109.214 20.9491 109.214C21.7058 109.214 22.317 109.476 22.7826 110C23.2517 110.524 23.4863 111.221 23.4863 112.09V112.157C23.4863 112.698 23.3818 113.184 23.173 113.616C22.9675 114.044 22.6713 114.378 22.2844 114.617C21.9009 114.857 21.4592 114.977 20.9593 114.977C20.2061 114.977 19.5949 114.715 19.1258 114.191C18.6601 113.667 18.4273 112.974 18.4273 112.111V112.044ZM19.3826 112.157C19.3826 112.773 19.5247 113.268 19.8089 113.641C20.0965 114.015 20.48 114.201 20.9593 114.201C21.4421 114.201 21.8256 114.013 22.1098 113.636C22.394 113.256 22.5361 112.725 22.5361 112.044C22.5361 111.435 22.3906 110.942 22.0995 110.565C21.8119 110.185 21.4284 109.995 20.9491 109.995C20.48 109.995 20.1016 110.181 19.814 110.555C19.5264 110.928 19.3826 111.462 19.3826 112.157ZM29.9936 108.207H27.5899V114.874H26.609V108.207H24.2104V107.396H29.9936V108.207Z" fill="black"/>
<path fill-rule="evenodd" clip-rule="evenodd" d="M7.07428 98.7338C7.28046 99.4751 6.84666 100.243 6.10535 100.449C5.36404 100.656 4.59594 100.222 4.38975 99.4805C4.18357 98.7392 4.61737 97.9711 5.35868 97.7649C6.09999 97.5587 6.86809 97.9925 7.07428 98.7338ZM7.12363 100.901C6.89721 101.077 6.63349 101.212 6.34023 101.294C5.13252 101.63 3.88117 100.923 3.54526 99.7154C3.20935 98.5077 3.91609 97.2563 5.1238 96.9204C6.33151 96.5845 7.58286 97.2912 7.91877 98.4989C8.08829 99.1084 7.99227 99.729 7.70033 100.237L14.5224 105.301L14 106.004L7.12363 100.901Z" fill="black"/>
<path fill-rule="evenodd" clip-rule="evenodd" d="M44.8849 116.149C43.9232 115.222 43.8946 113.692 44.8211 112.73C45.7476 111.768 47.2783 111.74 48.24 112.666C49.2018 113.593 49.2303 115.123 48.3038 116.085C47.3773 117.047 45.8466 117.075 44.8849 116.149ZM43.3743 113.575C43.5119 113.046 43.7834 112.544 44.1899 112.122C45.4522 110.812 47.5378 110.773 48.8482 112.035C50.1585 113.297 50.1975 115.383 48.9351 116.693C47.6727 118.004 45.5871 118.043 44.2768 116.78C43.6155 116.143 43.278 115.296 43.2682 114.445L31.0062 113.144L31.0986 112.273L43.3743 113.575Z" fill="black"/>
<path fill-rule="evenodd" clip-rule="evenodd" d="M25.348 128.258C25.6326 127.543 26.4429 127.194 27.1577 127.479C27.8726 127.763 28.2215 128.573 27.9369 129.288C27.6523 130.003 26.8421 130.352 26.1272 130.067C25.4123 129.783 25.0635 128.973 25.348 128.258ZM26.6205 126.503C26.9072 126.5 27.1991 126.552 27.4819 126.664C28.6466 127.128 29.2149 128.448 28.7513 129.612C28.2876 130.777 26.9677 131.345 25.803 130.882C24.6383 130.418 24.07 129.098 24.5336 127.934C24.7676 127.346 25.2197 126.91 25.7598 126.682L23.3941 118.522L24.236 118.278L26.6205 126.503Z" fill="black"/>
<path fill-rule="evenodd" clip-rule="evenodd" d="M33.3373 90.2022C32.0387 90.952 30.3781 90.507 29.6283 89.2084C28.8786 87.9097 29.3235 86.2492 30.6221 85.4994C31.9208 84.7496 33.5813 85.1946 34.3311 86.4932C35.0809 87.7919 34.6359 89.4524 33.3373 90.2022ZM30.2139 90.9791C29.6722 90.674 29.2026 90.2241 28.8692 89.6467C27.8774 87.9288 28.466 85.7321 30.1839 84.7403C31.9018 83.7485 34.0984 84.3371 35.0902 86.055C36.082 87.7728 35.4935 89.9695 33.7756 90.9613C32.9083 91.462 31.919 91.5599 31.0243 91.3131L25.9609 103.767L25.1489 103.437L30.2139 90.9791Z" fill="black"/>
<path fill-rule="evenodd" clip-rule="evenodd" d="M5.84644 129.607C7.39962 129.19 8.9961 130.112 9.41227 131.665C9.82844 133.219 8.90672 134.815 7.35354 135.231C5.80036 135.647 4.20389 134.726 3.78771 133.172C3.37154 131.619 4.29327 130.023 5.84644 129.607ZM9.21859 129.681C9.70409 130.144 10.0725 130.743 10.259 131.438C10.8004 133.459 9.6012 135.536 7.58041 136.078C5.55962 136.619 3.4825 135.42 2.94103 133.399C2.39956 131.379 3.59879 129.301 5.61958 128.76C6.64 128.487 7.67479 128.657 8.51895 129.153L17.0769 117.847L17.7758 118.377L9.21859 129.681Z" fill="black"/>
<ellipse cx="6.5987" cy="132.419" rx="3.28479" ry="3.28362" transform="rotate(-105 6.5987 132.419)" fill="#A2D3F1"/>
<ellipse cx="5.55825" cy="99.0092" rx="1.62219" ry="1.62161" transform="rotate(-105 5.55825 99.0092)" fill="#A2D3F1"/>
<ellipse cx="32.0722" cy="88.1284" rx="2.93748" ry="2.93644" transform="rotate(-105 32.0722 88.1284)" fill="#A2D3F1"/>
</svg>
