<svg width="265" height="225" viewBox="0 0 265 225" fill="none" xmlns="http://www.w3.org/2000/svg">
<path d="M241.565 215.406C241 215.406 240.54 214.946 240.54 214.373C240.54 213.811 241 213.351 241.565 213.351C242.131 213.351 242.591 213.811 242.591 214.373C242.591 214.946 242.131 215.406 241.565 215.406Z" fill="black"/>
<path d="M228.315 223.195H215.982C214.547 223.195 213.781 222.772 213.781 222.611L213.383 219.981C213.383 219.821 214.547 219.689 215.982 219.689H228.315C229.751 219.689 230.914 219.821 230.914 219.981L230.516 222.319C230.516 222.48 229.751 223.195 228.315 223.195Z" fill="#D1EBFB"/>
<path d="M252.94 217.912H231.044" stroke="black" stroke-width="0.876548" stroke-miterlimit="10" stroke-linecap="round" stroke-linejoin="round"/>
<path d="M222.213 199.935V192.462C222.213 191.166 223.262 190.119 224.555 190.119H258.576C259.869 190.119 260.917 191.166 260.917 192.462V203.522" stroke="black" stroke-width="0.876548" stroke-miterlimit="10" stroke-linecap="round" stroke-linejoin="round"/>
<path d="M246.537 223.714H236.593L237.652 217.985H245.477L246.537 223.714Z" stroke="black" stroke-width="0.876548" stroke-miterlimit="10" stroke-linecap="round" stroke-linejoin="round"/>
<path d="M252.871 211.101H231.044" stroke="black" stroke-width="0.876548" stroke-miterlimit="10" stroke-linecap="round" stroke-linejoin="round"/>
<path d="M229.393 223.71H215.033C214.12 223.71 213.381 222.968 213.381 222.061V201.585C213.381 200.678 214.12 199.936 215.033 199.936H229.393C230.305 199.936 231.045 200.678 231.045 201.585V222.061C231.045 222.968 230.305 223.71 229.393 223.71Z" stroke="black" stroke-width="0.876548" stroke-miterlimit="10" stroke-linecap="round" stroke-linejoin="round"/>
<path d="M262.574 223.711H254.759C253.85 223.711 253.112 222.971 253.112 222.066V205.618C253.112 204.713 253.85 203.973 254.759 203.973H262.574C263.483 203.973 264.22 204.713 264.22 205.618V222.066C264.22 222.971 263.483 223.711 262.574 223.711Z" fill="#D1EBFB" stroke="black" stroke-width="0.876548" stroke-miterlimit="10" stroke-linecap="round" stroke-linejoin="round"/>
<path d="M262.531 219.689H254.515C253.582 219.689 252.825 219.098 252.825 218.374V205.226C252.825 204.503 253.582 203.911 254.515 203.911H262.531C263.464 203.911 264.221 204.503 264.221 205.226V218.374C264.221 219.098 263.464 219.689 262.531 219.689Z" fill="white" stroke="black" stroke-width="0.876548" stroke-miterlimit="10" stroke-linecap="round" stroke-linejoin="round"/>
<path d="M258.668 222.562C258.323 222.562 258.042 222.277 258.042 221.931C258.042 221.596 258.323 221.311 258.668 221.311C259.012 221.311 259.293 221.596 259.293 221.931C259.293 222.277 259.012 222.562 258.668 222.562Z" fill="black"/>
<path d="M222.214 222.261C221.823 222.261 221.505 221.945 221.505 221.559C221.505 221.162 221.823 220.846 222.214 220.846C222.604 220.846 222.922 221.162 222.922 221.559C222.922 221.945 222.604 222.261 222.214 222.261Z" fill="black"/>
<path d="M257.381 206.284H259.794" stroke="black" stroke-width="0.876548" stroke-miterlimit="10" stroke-linecap="round" stroke-linejoin="round"/>
<path d="M253.227 220.223H264.106" stroke="black" stroke-width="0.876548" stroke-miterlimit="10" stroke-linecap="round" stroke-linejoin="round"/>
<path d="M213.563 219.513H230.862" stroke="black" stroke-width="0.876548" stroke-miterlimit="10" stroke-linecap="round" stroke-linejoin="round"/>
<path d="M234.893 223.707H248.238" stroke="black" stroke-width="0.876548" stroke-miterlimit="10" stroke-linecap="round" stroke-linejoin="round"/>
<g opacity="0.4">
<path d="M231.3 138.17C242.58 138.17 251.599 134.849 251.599 131.066V124.595C251.599 128.379 242.58 131.319 231.3 131.319C220.019 131.319 211 128.252 211 124.468V131.192C211 134.976 220.019 138.17 231.3 138.17Z" fill="#FEFBFB"/>
<path d="M211 131.192C211 134.976 220.019 138.17 231.3 138.17C242.58 138.17 251.599 134.849 251.599 131.066V124.468M251.599 124.595C251.599 128.379 242.58 131.319 231.3 131.319C220.019 131.319 211 128.252 211 124.468V131.319" stroke="black" stroke-width="0.525929"/>
<path d="M251.463 124.468C251.463 125.3 250.961 126.133 249.957 126.929C248.957 127.723 247.492 128.449 245.66 129.063C241.997 130.292 236.92 131.056 231.3 131.056C225.68 131.056 220.603 130.292 216.94 129.063C215.107 128.449 213.643 127.723 212.643 126.929C211.639 126.133 211.137 125.3 211.137 124.468C211.137 123.637 211.639 122.803 212.643 122.008C213.643 121.214 215.107 120.488 216.94 119.873C220.603 118.645 225.68 117.88 231.3 117.88C236.92 117.88 241.997 118.645 245.66 119.873C247.492 120.488 248.957 121.214 249.957 122.008C250.961 122.803 251.463 123.637 251.463 124.468Z" fill="#D1EBFB" stroke="black" stroke-width="0.525929"/>
<path d="M231.3 128.413C242.58 128.413 251.599 125.092 251.599 121.308V114.838C251.599 118.622 242.58 121.562 231.3 121.562C220.019 121.562 211 118.495 211 114.711V121.435C211 125.219 220.019 128.413 231.3 128.413Z" fill="#FEFBFB"/>
<path d="M211 121.435C211 125.219 220.019 128.413 231.3 128.413C242.58 128.413 251.599 125.092 251.599 121.308V114.711M251.599 114.838C251.599 118.622 242.58 121.562 231.3 121.562C220.019 121.562 211 118.495 211 114.711V121.562" stroke="black" stroke-width="0.525929"/>
<path d="M251.463 114.711C251.463 115.543 250.961 116.376 249.957 117.172C248.957 117.965 247.492 118.691 245.66 119.306C241.997 120.535 236.92 121.299 231.3 121.299C225.68 121.299 220.603 120.535 216.94 119.306C215.107 118.691 213.643 117.965 212.643 117.172C211.639 116.376 211.137 115.543 211.137 114.711C211.137 113.879 211.639 113.046 212.643 112.25C213.643 111.457 215.107 110.731 216.94 110.116C220.603 108.887 225.68 108.123 231.3 108.123C236.92 108.123 241.997 108.887 245.66 110.116C247.492 110.731 248.957 111.457 249.957 112.25C250.961 113.046 251.463 113.879 251.463 114.711Z" fill="#D1EBFB" stroke="black" stroke-width="0.525929"/>
<path d="M231.3 118.402C242.58 118.402 251.599 115.081 251.599 111.297V104.827C251.599 108.61 242.58 111.551 231.3 111.551C220.019 111.551 211 108.484 211 104.7V111.424C211 115.208 220.019 118.402 231.3 118.402Z" fill="#FEFBFB"/>
<path d="M211 111.424C211 115.208 220.019 118.402 231.3 118.402C242.58 118.402 251.599 115.081 251.599 111.297V104.7M251.599 104.827C251.599 108.61 242.58 111.551 231.3 111.551C220.019 111.551 211 108.484 211 104.7V111.551" stroke="black" stroke-width="0.525929"/>
<path d="M251.463 104.7C251.463 105.531 250.961 106.365 249.957 107.161C248.957 107.954 247.492 108.68 245.66 109.295C241.997 110.523 236.92 111.288 231.3 111.288C225.68 111.288 220.603 110.523 216.94 109.295C215.107 108.68 213.643 107.954 212.643 107.161C211.639 106.365 211.137 105.531 211.137 104.7C211.137 103.868 211.639 103.035 212.643 102.239C213.643 101.446 215.107 100.72 216.94 100.105C220.603 98.8764 225.68 98.112 231.3 98.112C236.92 98.112 241.997 98.8764 245.66 100.105C247.492 100.72 248.957 101.446 249.957 102.239C250.961 103.035 251.463 103.868 251.463 104.7Z" fill="#D1EBFB" stroke="black" stroke-width="0.525929"/>
</g>
<g opacity="0.4">
<path d="M224.073 32.4657H223.087V24.9877H224.073V32.4657ZM225.48 29.6358C225.48 29.0914 225.587 28.6017 225.799 28.1669C226.015 27.732 226.313 27.3965 226.693 27.1602C227.076 26.924 227.513 26.8058 228.002 26.8058C228.759 26.8058 229.37 27.0678 229.836 27.5917C230.305 28.1155 230.539 28.8123 230.539 29.682V29.7488C230.539 30.2898 230.435 30.776 230.226 31.2074C230.021 31.6354 229.725 31.9693 229.338 32.2089C228.954 32.4486 228.512 32.5685 228.013 32.5685C227.259 32.5685 226.648 32.3065 226.179 31.7827C225.713 31.2588 225.48 30.5654 225.48 29.7026V29.6358ZM226.436 29.7488C226.436 30.3651 226.578 30.8599 226.862 31.2331C227.15 31.6063 227.533 31.7929 228.013 31.7929C228.495 31.7929 228.879 31.6046 229.163 31.228C229.447 30.8479 229.589 30.3172 229.589 29.6358C229.589 29.0263 229.444 28.5333 229.153 28.1566C228.865 27.7766 228.482 27.5865 228.002 27.5865C227.533 27.5865 227.155 27.7731 226.867 28.1463C226.58 28.5196 226.436 29.0537 226.436 29.7488ZM237.047 25.7992H234.643V32.4657H233.662V25.7992H231.264V24.9877H237.047V25.7992Z" fill="black"/>
<path fill-rule="evenodd" clip-rule="evenodd" d="M214.127 16.3256C214.334 17.0669 213.9 17.835 213.159 18.0412C212.417 18.2474 211.649 17.8136 211.443 17.0722C211.237 16.3309 211.671 15.5628 212.412 15.3566C213.153 15.1505 213.921 15.5843 214.127 16.3256ZM214.177 18.4928C213.95 18.6686 213.687 18.8041 213.393 18.8857C212.186 19.2216 210.934 18.5148 210.598 17.3071C210.263 16.0994 210.969 14.8481 212.177 14.5122C213.385 14.1762 214.636 14.883 214.972 16.0907C215.141 16.7002 215.045 17.3208 214.754 17.8292L221.576 22.8923L221.053 23.5962L214.177 18.4928Z" fill="black"/>
<path fill-rule="evenodd" clip-rule="evenodd" d="M251.938 33.7407C250.977 32.8142 250.948 31.2835 251.874 30.3218C252.801 29.36 254.332 29.3315 255.293 30.258C256.255 31.1845 256.284 32.7152 255.357 33.6769C254.431 34.6386 252.9 34.6672 251.938 33.7407ZM250.428 31.1669C250.565 30.6377 250.837 30.1355 251.243 29.7136C252.506 28.4033 254.591 28.3643 255.902 29.6267C257.212 30.8891 257.251 32.9747 255.988 34.285C254.726 35.5954 252.641 35.6343 251.33 34.3719C250.669 33.7349 250.331 32.8881 250.322 32.0371L238.06 30.7362L238.152 29.8646L250.428 31.1669Z" fill="black"/>
<path fill-rule="evenodd" clip-rule="evenodd" d="M232.401 45.8495C232.686 45.1346 233.496 44.7857 234.211 45.0703C234.926 45.3549 235.275 46.1651 234.99 46.88C234.706 47.5949 233.895 47.9438 233.18 47.6592C232.466 47.3746 232.117 46.5644 232.401 45.8495ZM233.674 44.0945C233.96 44.0916 234.252 44.1434 234.535 44.2559C235.7 44.7196 236.268 46.0396 235.805 47.2042C235.341 48.3689 234.021 48.9372 232.856 48.4736C231.692 48.0099 231.123 46.6899 231.587 45.5253C231.821 44.9375 232.273 44.5016 232.813 44.2736L230.447 36.114L231.289 35.8699L233.674 44.0945Z" fill="black"/>
<path fill-rule="evenodd" clip-rule="evenodd" d="M240.391 7.79395C239.092 8.54372 237.431 8.09877 236.682 6.80013C235.932 5.5015 236.377 3.84093 237.675 3.09117C238.974 2.3414 240.635 2.78634 241.384 4.08498C242.134 5.38362 241.689 7.04418 240.391 7.79395ZM237.267 8.57086C236.725 8.26574 236.256 7.81588 235.922 7.23841C234.931 5.52052 235.519 3.32387 237.237 2.33205C238.955 1.34023 241.152 1.92882 242.144 3.64671C243.135 5.36459 242.547 7.56124 240.829 8.55306C239.962 9.05378 238.972 9.15169 238.078 8.90486L233.014 21.3589L232.202 21.0288L237.267 8.57086Z" fill="black"/>
<path fill-rule="evenodd" clip-rule="evenodd" d="M212.9 47.1984C214.453 46.7822 216.049 47.7039 216.465 49.2571C216.882 50.8103 215.96 52.4067 214.407 52.8229C212.854 53.2391 211.257 52.3174 210.841 50.7642C210.425 49.211 211.346 47.6145 212.9 47.1984ZM216.272 47.2727C216.757 47.7361 217.126 48.3345 217.312 49.0302C217.854 51.051 216.654 53.1281 214.634 53.6696C212.613 54.2111 210.536 53.0118 209.994 50.991C209.453 48.9703 210.652 46.8931 212.673 46.3517C213.693 46.0783 214.728 46.2487 215.572 46.7446L224.13 35.4392L224.829 35.9683L216.272 47.2727Z" fill="black"/>
<ellipse cx="213.652" cy="50.011" rx="3.28479" ry="3.28362" transform="rotate(-105 213.652 50.011)" fill="#A2D3F1"/>
<ellipse cx="212.612" cy="16.6009" rx="1.62219" ry="1.62161" transform="rotate(-105 212.612 16.6009)" fill="#A2D3F1"/>
<ellipse cx="239.125" cy="5.72013" rx="2.93748" ry="2.93644" transform="rotate(-105 239.125 5.72013)" fill="#A2D3F1"/>
</g>
<g opacity="0.2">
<path d="M199.796 29.4785H171.437C164.176 29.4785 158.289 35.3651 158.289 42.6267V146.059C158.289 151.869 153.58 156.578 147.771 156.578H0.81944" stroke="black" stroke-width="7.88894"/>
<path d="M199.796 29.4785H171.437C164.176 29.4785 158.289 35.3651 158.289 42.6267V146.059C158.289 151.869 153.58 156.578 147.771 156.578H0.81944" stroke="#D1EBFB" stroke-width="7.01239"/>
</g>
<path d="M199.796 207.418H175.282C168.262 207.418 162.572 201.727 162.572 194.708V194.708C162.572 187.688 156.881 181.998 149.862 181.998H0.381179" stroke="#010101" stroke-width="7.88894"/>
<path d="M199.796 207.418H175.282C168.262 207.418 162.572 201.727 162.572 194.708V194.708C162.572 187.688 156.881 181.998 149.862 181.998H0.381179" stroke="#D1EBFB" stroke-width="7.01239"/>
<g opacity="0.2">
<path d="M199.796 120.639H184.018C176.757 120.639 170.87 126.526 170.87 133.788V155.701C170.87 162.963 164.983 168.85 157.722 168.85H0.819547" stroke="black" stroke-width="7.88894"/>
<path d="M199.796 120.639H184.018C176.757 120.639 170.87 126.526 170.87 133.788V155.701C170.87 162.963 164.983 168.85 157.722 168.85H0.819547" stroke="#D1EBFB" stroke-width="7.01239"/>
</g>
</svg>
